<svg viewBox="0 0 64 64">
	<circle class="cls-b" cx="31.963" cy="31.963" r="31.963" fill="currentColor" />
	<path class="cls-p" fill="currentColor" d="M52 26.345v-.06-.183c0-.062 0-.062-.061-.122 0 0 0-.061-.06-.061 0-.061-.062-.061-.062-.122l-.06-.061c0-.061-.062-.061-.062-.122l-.06-.061c0-.061-.062-.061-.062-.061l-.06-.06c-.061 0-.061-.062-.122-.062l-.061-.06-17.916-12.005c-.548-.366-1.28-.366-1.889 0L13.731 25.187l-.06.061c-.062 0-.062.061-.123.061l-.06.061-.061.061-.061.061c0 .06-.061.06-.061.122l-.061.06c0 .062-.061.062-.061.123 0 0 0 .06-.061.06 0 .062 0 .062-.061.123v12.857c0 .061 0 .061.06.122 0 0 0 .061.062.061 0 .061.06.061.06.122l.062.06c0 .062.06.062.06.123l.062.06c0 .062.06.062.06.062l.061.06s.061.062.122.062l.061.06 17.794 11.883c.305.183.61.305.914.305.305 0 .67-.122.914-.305l17.916-11.7.06-.06c.062 0 .062-.062.123-.062l.06-.06.061-.061.061-.061c0-.061.061-.061.061-.122l.061-.061c0-.061.061-.061.061-.122 0 0 0-.061.061-.061 0-.06 0-.06.061-.122v-.06-.183-12.249c.061-.061.061-.122.061-.183zm-17.794-8.531l13.102 8.775-5.85 3.9-7.252-4.875v-7.8zm-3.412 0v7.8l-7.252 4.875-5.85-3.9 13.102-8.775zM16.352 29.697l4.204 2.803-4.204 2.803v-5.606zm14.442 17.489L17.692 38.41l5.85-3.9 7.252 4.875v7.8zM32.5 36.46L26.589 32.5l5.911-3.961 5.91 3.96-5.91 3.962zm1.706 10.725v-7.8l7.252-4.875 5.85 3.9-13.102 8.775zm14.442-11.883L44.444 32.5l4.204-2.803v5.606z" />
</svg>
