<svg viewBox="0 0 24 24">
	<path d="M8.66746 0.857117H3.33261C2.67614 0.857798 2.04677 1.11894 1.58266 1.58321C1.11855 2.04748 0.857632 2.67694 0.857178 3.3334V8.66654C0.857632 9.32301 1.11855 9.95247 1.58266 10.4167C2.04677 10.881 2.67614 11.1421 3.33261 11.1428H8.66746C9.32393 11.1421 9.9533 10.881 10.4174 10.4167C10.8815 9.95247 11.1424 9.32301 11.1429 8.66654V3.3334C11.1424 2.67694 10.8815 2.04748 10.4174 1.58321C9.9533 1.11894 9.32393 0.857798 8.66746 0.857117ZM9.42861 8.66654C9.42861 8.86849 9.34844 9.06218 9.20572 9.20506C9.06301 9.34793 8.86941 9.42832 8.66746 9.42854H3.33261C3.13066 9.42832 2.93706 9.34793 2.79435 9.20506C2.65163 9.06218 2.57146 8.86849 2.57146 8.66654V3.3334C2.57146 3.13146 2.65163 2.93777 2.79435 2.79489C2.93706 2.65201 3.13066 2.57163 3.33261 2.5714H8.66746C8.86941 2.57163 9.06301 2.65201 9.20572 2.79489C9.34844 2.93777 9.42861 3.13146 9.42861 3.3334V8.66654Z" fill="currentColor" />
	<path d="M20.6675 0.857117H15.3326C14.6761 0.857798 14.0468 1.11894 13.5827 1.58321C13.1186 2.04748 12.8576 2.67694 12.8572 3.3334V8.66654C12.8576 9.32301 13.1186 9.95247 13.5827 10.4167C14.0468 10.881 14.6761 11.1421 15.3326 11.1428H20.6675C21.3239 11.1421 21.9533 10.881 22.4174 10.4167C22.8815 9.95247 23.1424 9.32301 23.1429 8.66654V3.3334C23.1424 2.67694 22.8815 2.04748 22.4174 1.58321C21.9533 1.11894 21.3239 0.857798 20.6675 0.857117ZM21.4286 8.66654C21.4286 8.86849 21.3484 9.06218 21.2057 9.20506C21.063 9.34793 20.8694 9.42832 20.6675 9.42854H15.3326C15.1307 9.42832 14.9371 9.34793 14.7943 9.20506C14.6516 9.06218 14.5715 8.86849 14.5715 8.66654V3.3334C14.5715 3.13146 14.6516 2.93777 14.7943 2.79489C14.9371 2.65201 15.1307 2.57163 15.3326 2.5714H20.6675C20.8694 2.57163 21.063 2.65201 21.2057 2.79489C21.3484 2.93777 21.4286 3.13146 21.4286 3.3334V8.66654Z" fill="currentColor" />
	<path d="M20.6675 12.8571H15.3326C14.6761 12.8578 14.0468 13.1189 13.5827 13.5832C13.1186 14.0475 12.8576 14.6769 12.8572 15.3334V20.6665C12.8576 21.323 13.1186 21.9525 13.5827 22.4167C14.0468 22.881 14.6761 23.1421 15.3326 23.1428H20.6675C21.3239 23.1421 21.9533 22.881 22.4174 22.4167C22.8815 21.9525 23.1424 21.323 23.1429 20.6665V15.3334C23.1424 14.6769 22.8815 14.0475 22.4174 13.5832C21.9533 13.1189 21.3239 12.8578 20.6675 12.8571ZM21.4286 20.6665C21.4286 20.8685 21.3484 21.0622 21.2057 21.2051C21.063 21.3479 20.8694 21.4283 20.6675 21.4285H15.3326C15.1307 21.4283 14.9371 21.3479 14.7943 21.2051C14.6516 21.0622 14.5715 20.8685 14.5715 20.6665V15.3334C14.5715 15.1315 14.6516 14.9378 14.7943 14.7949C14.9371 14.652 15.1307 14.5716 15.3326 14.5714H20.6675C20.8694 14.5716 21.063 14.652 21.2057 14.7949C21.3484 14.9378 21.4286 15.1315 21.4286 15.3334V20.6665Z" fill="currentColor" />
	<path d="M8.66746 12.8571H3.33261C2.67614 12.8578 2.04677 13.1189 1.58266 13.5832C1.11855 14.0475 0.857632 14.6769 0.857178 15.3334V20.6665C0.857632 21.323 1.11855 21.9525 1.58266 22.4167C2.04677 22.881 2.67614 23.1421 3.33261 23.1428H8.66746C9.32393 23.1421 9.9533 22.881 10.4174 22.4167C10.8815 21.9525 11.1424 21.323 11.1429 20.6665V15.3334C11.1424 14.6769 10.8815 14.0475 10.4174 13.5832C9.9533 13.1189 9.32393 12.8578 8.66746 12.8571ZM9.42861 20.6665C9.42861 20.8685 9.34844 21.0622 9.20572 21.2051C9.06301 21.3479 8.86941 21.4283 8.66746 21.4285H3.33261C3.13066 21.4283 2.93706 21.3479 2.79435 21.2051C2.65163 21.0622 2.57146 20.8685 2.57146 20.6665V15.3334C2.57146 15.1315 2.65163 14.9378 2.79435 14.7949C2.93706 14.652 3.13066 14.5716 3.33261 14.5714H8.66746C8.86941 14.5716 9.06301 14.652 9.20572 14.7949C9.34844 14.9378 9.42861 15.1315 9.42861 15.3334V20.6665Z" fill="currentColor" />
</svg>
