<svg stroke-linejoin="round" stroke-miterlimit="2" viewBox="0 0 16 16">
	<circle class="cls-b" fill="currentColor" cx="163.412" cy=".376" r=".376" transform="translate(-3464.5) scale(21.25)" />
	<path class="cls-p" fill="currentColor" d="M5.35 15.546s.394.161.929.268c.103.02.213.045.324.064.255.044.523.077.736.095.448.037.954.032 1.377-.005 1.278-.111 2.264-.537 1.936-.427-.36.122-.603-.051-.608-.431-.006-.711 0-1.419 0-2.131 0-.351-.019-.707-.174-1.035-.089-.191-.215-.361-.327-.543.299-.056.623-.098.941-.178.833-.215 1.583-.585 2.089-1.321.37-.534.538-1.142.613-1.779.056-.483.076-.97-.019-1.452a2.93 2.93 0 00-.692-1.419c-.066-.076-.076-.137-.043-.226.234-.674.145-1.335-.103-1.981-.014-.042-.084-.079-.131-.084-.286-.042-.553.042-.805.16-.413.196-.816.421-1.223.623a.406.406 0 01-.248.042 7.788 7.788 0 00-3.831 0 .335.335 0 01-.249-.048c-.534-.327-1.082-.595-1.681-.754-.01-.005-.019-.005-.033-.009-.384-.08-.45-.038-.562.337-.169.581-.201 1.162.005 1.747.019.047 0 .127-.033.164-.689.783-.843 1.71-.749 2.707a4.7 4.7 0 00.454 1.672c.37.741.992 1.195 1.752 1.457.449.155.932.22 1.395.328a.564.564 0 00.056.009c-.116.216-.243.431-.355.652a.621.621 0 00-.071.242c-.004.175-.098.253-.253.295-.519.142-1.035.23-1.532-.074a1.797 1.797 0 01-.608-.647c-.234-.402-.567-.698-1.016-.829-.164-.046-.356-.037-.534-.023-.108.005-.146.094-.071.187.076.089.146.197.244.253.44.253.688.661.885 1.106.113.253.22.506.436.697.347.31.759.427 1.203.445.385.02.773.005 1.186.005v.773c0 .206.009.417.009.623 0 .384-.619.445-.619.445z" />
</svg>
