<svg viewBox="0 0 65 65">
	<path class="cls-b" fill="currentColor" d="M32.482 64.027c17.653 0 31.963-14.31 31.963-31.962 0-17.653-14.31-31.963-31.963-31.963C14.83.102.52 14.412.52 32.065c0 17.652 14.31 31.962 31.962 31.962z" />
	<path class="cls-p" fill="currentColor" d="M44.154 23.033a2.608 2.608 0 100-5.216 2.608 2.608 0 000 5.216zM32.403 20.95c-6.106 0-11.068 4.961-11.068 11.067 0 6.107 4.962 11.068 11.068 11.068S43.47 38.124 43.47 32.017c0-6.106-4.96-11.067-11.067-11.067zm0 19.066a7.995 7.995 0 01-7.999-7.999 7.995 7.995 0 017.999-7.998 7.995 7.995 0 017.998 7.998 7.995 7.995 0 01-7.998 7.999z" />
	<path class="cls-p" fill="currentColor" d="M53.775 31.302a112.686 112.686 0 00-.54-10.543c-.208-2.115-1.623-8.571-9.606-9.605-2.782-.366-7.187-.35-11.067-.35-4.023 0-7.84.191-11.434.35-2.258.111-4.818 1.288-6.567 3.021-2.751 2.752-3.037 5.932-3.037 6.568A174.73 174.73 0 0011.174 32c0 3.96.19 7.713.35 11.259.11 2.417 1.208 4.786 2.878 6.567 2.306 2.465 6.074 3.022 6.71 3.022 3.817.238 7.872.381 12.15.35 3.625-.016 7.155.381 10.367-.35 9.192-2.1 9.605-8.953 9.605-9.605.35-3.61.572-7.617.54-11.942zm-3.387 10.416c0 .556-.462 7.362-8.27 8.268-2.814.334-5.803.287-8.936.303-3.69.015-7.188-.096-10.48-.303-.556 0-3.482-.047-5.851-2.417a8.243 8.243 0 01-2.417-5.852 155.658 155.658 0 010-19.4c0-.556.047-3.482 2.417-5.852a8.243 8.243 0 015.852-2.417c3.1-.19 6.392-.318 9.859-.302 3.355 0 6.535.111 9.557.302 7.807.764 8.11 6.456 8.269 8.27.27 2.798.445 5.835.46 9.095.017 3.721-.158 7.172-.46 10.305z" />
</svg>
