<svg viewBox="0 0 64 65">
	<circle class="cls-b" fill="currentColor" cx="32.037" cy="32.065" r="31.963" />
	<path class="cls-p" fill="currentColor" d="M22.261 48.295h-7.925V22.77h7.925v25.525zM18.298 19.3c-2.525 0-4.584-2.065-4.584-4.598s2.059-4.598 4.584-4.598c2.526 0 4.585 2.065 4.585 4.598s-2.06 4.598-4.585 4.598zm33.567 28.994H43.98V35.902c0-2.961-.04-6.78-4.119-6.78-4.118 0-4.74 3.234-4.74 6.547v12.626h-7.886V22.77h7.576v3.468h.116c1.05-1.988 3.652-4.13 7.499-4.13 8.003 0 9.48 5.299 9.48 12.158l-.04 14.029z" />
</svg>
