<svg stroke-linecap="square" stroke-miterlimit="10" viewBox="0 0 51 51">
	<path class="cls-b" fill="currentColor" d="M25.05 50.085c13.807 0 25-11.193 25-25s-11.193-25-25-25-25 11.193-25 25 11.193 25 25 25z" />
	<path class="cls-p" stroke="currentColor" stroke-width="2" d="M16.05 12.046v5" />
	<path class="cls-p" stroke="currentColor" stroke-linecap="butt" stroke-width="2" d="M40.05 20.046v18h-30v-26h25.003m-25.003 5h20.003" />
	<path class="cls-p" stroke="currentColor" stroke-width="2" d="M31.053 22.046l-3-3 8.379-8.38a2.131 2.131 0 013 0 2.131 2.131 0 010 3l-8.38 8.38zm-8.093.874a2.987 2.987 0 012.055-.82A2.999 2.999 0 0128 25.085c0 .764-.294 1.5-.82 2.055-1.165 1.165-5.127.906-5.127.906s-.11-4.11.907-5.126z" />
</svg>
