<svg width="100%" height="100%" viewBox="0 0 1761 1645">
	<g transform="matrix(1,0,0,1,0,-1.05413)">
		<g transform="matrix(4.16667,0,0,4.16667,0,0)">
			<path d="M170.157,0.253L85.656,118.463L1.155,0.253L1.155,46.082L85.656,164.2L143.54,83.23L143.54,183.989L170.157,183.989L170.157,0.253ZM271.252,168.209L262.277,158.42L248.79,173.656L216.977,173.653L216.977,54.137L190.434,54.137L190.431,187.061C190.431,200.566 187.216,210.695 180.79,217.445C174.359,224.195 165.622,227.876 154.585,228.486C154.585,228.486 151.781,228.765 143.869,228.714L143.872,254.426C150.688,254.443 154.585,254.202 154.585,254.202C166.835,253.749 177.646,250.864 187.029,245.554C196.406,240.241 203.737,232.658 209.037,222.795C214.328,212.934 216.977,201.251 216.977,187.743L216.977,183.865L253.388,183.869L262.409,173.677L277.235,189.85L293.299,111.596L315.602,254.426L332.203,178.425L343.875,187.682L350.942,160.561L359.004,189.823L369.084,177.048L374.768,183.869L421.02,183.869L421.02,173.656L379.559,173.656L368.857,160.848L363.489,167.652L350.668,121.112L337.944,169.943L325.72,160.247L317.271,198.923L294.668,54.137L271.252,168.209ZM1.155,183.989L27.769,183.989L27.769,101.111L1.155,63.88L1.155,183.989Z" style="fill:url(#_Linear1);" />
		</g>
		<g transform="matrix(4.16667,0,0,4.16667,0,0)">
			<path d="M20.416,392.001C22.431,390.002 23.437,387.188 23.437,383.557L23.437,356.196L15.964,356.196L15.964,381.62C15.964,383.557 15.511,385.08 14.603,386.187C13.694,387.294 12.45,387.847 10.866,387.847C9.127,387.847 7.313,386.973 5.421,385.217L2.931,391.4C5.499,393.801 8.543,395 12.064,395C15.617,395 18.401,393.999 20.416,392.001ZM72.839,391.4C75.276,389.002 76.498,385.449 76.498,380.742L76.498,356.196L69.021,356.196L69.021,378.621C69.021,381.835 68.476,384.147 67.383,385.553C66.293,386.961 64.501,387.663 62.008,387.663C59.532,387.663 57.746,386.961 56.645,385.553C55.546,384.147 54.996,381.835 54.996,378.621L54.996,356.196L47.544,356.196L47.544,380.742C47.544,385.449 48.763,389.002 51.2,391.4C53.637,393.801 57.24,395 62.008,395C66.791,395 70.402,393.801 72.839,391.4ZM106.718,394.262L109.068,369.624L117.766,393.315L122.358,393.315L131.031,369.624L133.407,394.262L140.881,394.262L137.099,356.196L129.139,356.196L120.05,380.005L110.983,356.196L103.025,356.196L99.24,394.262L106.718,394.262ZM171.724,394.262L171.724,379.658L177.213,379.658C179.689,379.658 181.894,379.186 183.823,378.241C185.754,377.293 187.269,375.932 188.368,374.157C189.466,372.38 190.017,370.231 190.017,367.709C190.017,365.157 189.466,363.03 188.368,361.331C187.269,359.632 185.754,358.352 183.823,357.491C181.894,356.627 179.689,356.196 177.213,356.196L164.272,356.196L164.272,394.262L171.724,394.262ZM171.724,362.172L174.907,362.172C176.215,362.172 177.417,362.362 178.518,362.737C179.617,363.114 180.505,363.721 181.182,364.56C181.858,365.398 182.196,366.519 182.196,367.916C182.196,369.285 181.858,370.396 181.182,371.25C180.505,372.103 179.617,372.727 178.518,373.117C177.417,373.512 176.215,373.707 174.907,373.707L171.724,373.707L171.724,362.172ZM227.941,393.627C230.019,392.713 231.637,391.386 232.8,389.648C233.96,387.908 234.541,385.826 234.541,383.395C234.541,381.721 234.267,380.287 233.722,379.093C233.174,377.903 232.386,376.855 231.357,375.957C230.326,375.058 229.088,374.238 227.643,373.5C226.198,372.76 224.582,372.017 222.799,371.262C221.969,370.924 221.206,370.605 220.516,370.303C219.822,370.004 219.229,369.686 218.738,369.347C218.246,369.009 217.869,368.612 217.608,368.159C217.346,367.706 217.215,367.164 217.215,366.532C217.215,365.747 217.416,365.037 217.815,364.401C218.215,363.76 218.797,363.248 219.557,362.865C220.317,362.48 221.245,362.287 222.338,362.287C223.305,362.287 224.264,362.427 225.208,362.703C226.156,362.981 227.048,363.349 227.886,363.811C228.722,364.272 229.474,364.78 230.133,365.333L233.25,359.473C232.417,358.766 231.399,358.111 230.191,357.513C228.984,356.912 227.687,356.429 226.304,356.06C224.921,355.691 223.537,355.506 222.153,355.506C220.322,355.506 218.657,355.814 217.159,356.429C215.658,357.044 214.366,357.874 213.282,358.919C212.197,359.967 211.365,361.158 210.781,362.496C210.194,363.833 209.903,365.233 209.903,366.695C209.903,367.925 210.115,369.037 210.538,370.027C210.959,371.019 211.533,371.907 212.257,372.693C212.977,373.476 213.805,374.166 214.735,374.756C215.666,375.348 216.647,375.876 217.676,376.337C219.062,376.936 220.295,377.486 221.379,377.986C222.464,378.486 223.378,378.992 224.124,379.51C224.87,380.025 225.44,380.606 225.832,381.251C226.223,381.897 226.422,382.665 226.422,383.557C226.422,384.558 226.179,385.396 225.694,386.072C225.208,386.749 224.555,387.252 223.732,387.582C222.911,387.914 221.961,388.079 220.885,388.079C219.73,388.079 218.643,387.917 217.62,387.596C216.597,387.272 215.646,386.855 214.769,386.349C213.894,385.841 213.101,385.31 212.394,384.756C211.686,384.202 211.08,383.705 210.571,383.258L206.742,389.441C207.234,389.915 207.905,390.472 208.748,391.101C209.596,391.733 210.607,392.347 211.784,392.945C212.961,393.546 214.294,394.038 215.786,394.424C217.276,394.807 218.9,395 220.652,395C223.436,395 225.865,394.541 227.941,393.627ZM267.553,394.262L267.553,362.796L277.218,362.796L277.218,356.196L250.458,356.196L250.458,362.796L260.079,362.796L260.079,394.262L267.553,394.262ZM299.11,394.262L302.387,385.586L317.311,385.586L320.565,394.262L328.593,394.262L313.298,356.196L306.378,356.196L291.105,394.262L299.11,394.262ZM309.838,366.301L314.773,379.034L304.902,379.034L309.838,366.301ZM356.48,394.262L356.48,379.912L358.236,379.912L369.24,394.262L378.721,394.262L366.263,379.06C368.046,378.551 369.572,377.772 370.842,376.718C372.11,375.664 373.083,374.375 373.76,372.852C374.438,371.331 374.776,369.624 374.776,367.732C374.776,365.303 374.251,363.226 373.206,361.504C372.16,359.782 370.677,358.466 368.754,357.558C366.833,356.653 364.572,356.196 361.973,356.196L349.032,356.196L349.032,394.262L356.48,394.262ZM356.48,362.172L359.664,362.172C362.004,362.172 363.804,362.673 365.064,363.673C366.324,364.671 366.956,366.085 366.956,367.916C366.956,369.132 366.671,370.169 366.101,371.029C365.533,371.894 364.701,372.553 363.61,373.014C362.518,373.476 361.204,373.707 359.664,373.707L356.48,373.707L356.48,362.172ZM409.541,394.262L409.541,362.796L419.206,362.796L419.206,356.196L392.446,356.196L392.446,362.796L402.067,362.796L402.067,394.262L409.541,394.262Z" style="fill:rgb(0,122,156);fill-rule:nonzero;" />
		</g>
		<g transform="matrix(4.16667,0,0,4.16667,0,0)">
			<path d="M2.515,329.977L7.197,296.736L18.617,327.302L20.624,327.302L32.044,296.736L36.726,329.977L39.241,329.977L34.026,291.914L31.329,291.914L19.631,323.194L7.912,291.914L5.215,291.914L0,329.977L2.515,329.977ZM63.901,329.977L68.907,316.988L85.632,316.988L90.616,329.977L93.335,329.977L78.436,291.914L76.082,291.914L61.179,329.977L63.901,329.977ZM77.259,295.191L84.777,314.752L69.76,314.752L77.259,295.191ZM120.098,329.977L120.098,313.528L125.056,313.528L137.491,329.977L140.697,329.977L127.985,313.344C130.171,313.19 132.058,312.645 133.651,311.706C135.241,310.77 136.477,309.515 137.352,307.946C138.229,306.379 138.668,304.554 138.668,302.48C138.668,300.294 138.179,298.416 137.203,296.839C136.225,295.263 134.844,294.047 133.061,293.195C131.278,292.339 129.154,291.914 126.694,291.914L117.582,291.914L117.582,329.977L120.098,329.977ZM120.098,293.988L126.233,293.988C129.31,293.988 131.731,294.751 133.5,296.272C135.269,297.795 136.152,299.88 136.152,302.525C136.152,304.311 135.744,305.856 134.931,307.161C134.115,308.469 132.966,309.484 131.482,310.208C129.998,310.929 128.248,311.292 126.233,311.292L120.098,311.292L120.098,293.988ZM166.464,329.977L166.464,312.399L185.819,329.977L189.419,329.977L168.563,310.899L187.572,291.914L184.321,291.914L166.464,309.746L166.464,291.914L163.951,291.914L163.951,329.977L166.464,329.977ZM231.358,329.977L231.358,327.738L215.186,327.738L215.186,312.005L230.805,312.005L230.805,309.791L215.186,309.791L215.186,294.151L231.358,294.151L231.358,291.914L212.671,291.914L212.671,329.977L231.358,329.977ZM267.805,329.977L267.805,294.265L279.94,294.265L279.94,291.914L253.182,291.914L253.182,294.265L265.292,294.265L265.292,329.977L267.805,329.977ZM306.652,291.914L304.137,291.914L304.137,329.977L306.652,329.977L306.652,291.914ZM336.827,329.977L336.827,296.32L358.281,329.977L360.797,329.977L360.797,291.914L358.281,291.914L358.281,325.616L336.827,291.914L334.311,291.914L334.311,329.977L336.827,329.977ZM411.187,329.723C413.242,329.063 415.117,328.06 416.817,326.712C418.517,325.367 419.878,323.671 420.9,321.625C421.924,319.579 422.435,317.159 422.435,314.359L422.435,311.544L404.81,311.544L404.81,313.668L419.853,313.668L419.853,315.189C419.853,317.221 419.434,319.051 418.595,320.681C417.756,322.31 416.624,323.702 415.201,324.857C413.779,326.008 412.188,326.894 410.428,327.509C408.667,328.123 406.864,328.431 405.02,328.431C402.772,328.431 400.673,327.982 398.72,327.081C396.766,326.181 395.061,324.938 393.599,323.344C392.138,321.754 391,319.893 390.184,317.763C389.37,315.633 388.962,313.344 388.962,310.899C388.962,308.623 389.322,306.445 390.047,304.369C390.768,302.295 391.83,300.434 393.23,298.787C394.631,297.141 396.33,295.842 398.328,294.889C400.326,293.936 402.604,293.46 405.156,293.46C407.831,293.46 410.296,293.994 412.549,295.062C414.802,296.132 416.669,297.535 418.145,299.271L419.551,297.382C418.491,296.166 417.233,295.098 415.78,294.173C414.327,293.25 412.714,292.529 410.947,292.007C409.179,291.485 407.272,291.222 405.227,291.222C402.21,291.222 399.527,291.772 397.174,292.87C394.82,293.972 392.833,295.453 391.212,297.322C389.588,299.193 388.358,301.306 387.52,303.667C386.682,306.027 386.262,308.469 386.262,310.99C386.262,313.73 386.74,316.289 387.693,318.674C388.646,321.058 389.977,323.152 391.685,324.96C393.393,326.766 395.382,328.177 397.66,329.192C399.936,330.209 402.395,330.715 405.042,330.715C407.088,330.715 409.137,330.385 411.187,329.723Z" style="fill:rgb(35,31,32);fill-rule:nonzero;" />
		</g>
	</g>
	<defs>
		<linearGradient id="_Linear1" x1="0" y1="0" x2="1" y2="0" gradientUnits="userSpaceOnUse" gradientTransform="matrix(194.747,203.403,-203.403,194.747,114.986,78.4492)">
			<stop offset="0" style="stop-color:rgb(0,123,156);stop-opacity:1" />
			<stop offset="1" style="stop-color:rgb(4,68,89);stop-opacity:1" />
		</linearGradient>
	</defs>
</svg>
